<svg xmlns="http://www.w3.org/2000/svg" viewBox="0 0 64 64" fill="none">
  <rect width="64" height="64" rx="14" fill="#0f172a"/>
  <path d="M32 20C24.268 20 17.332 23.134 12.4 28.2L16.8 32.6C20.534 28.734 25.934 26.4 32 26.4C38.066 26.4 43.466 28.734 47.2 32.6L51.6 28.2C46.668 23.134 39.732 20 32 20Z" fill="#00d4ff"/>
  <path d="M32 30.4C27.2 30.4 22.934 32.4 19.866 35.6L24.266 40C26.134 38 28.934 36.8 32 36.8C35.066 36.8 37.866 38 39.734 40L44.134 35.6C41.066 32.4 36.8 30.4 32 30.4Z" fill="#00d4ff" opacity="0.7"/>
  <circle cx="32" cy="48" r="4" fill="#00d4ff"/>
  <rect x="29" y="44" width="6" height="2" rx="1" fill="#0f172a"/>
</svg>
